<mxfile host="app.diagrams.net" modified="2021-09-08T10:04:53.087Z" agent="5.0 (Macintosh; Intel Mac OS X 11_5_2) AppleWebKit/537.36 (KHTML, like Gecko) Chrome/88.0.4324.96 Safari/537.36" etag="zQKBvWrmdnbgGajF7qFG" version="14.9.9" type="github">
  <diagram id="7FpeM_619Kzb_mVnrjdb" name="Page-1">
    <mxGraphModel dx="1272" dy="670" grid="1" gridSize="10" guides="1" tooltips="1" connect="1" arrows="1" fold="1" page="1" pageScale="1" pageWidth="850" pageHeight="1100" math="0" shadow="0">
      <root>
        <mxCell id="0" />
        <mxCell id="1" parent="0" />
        <mxCell id="XBzWgzZ4IYU0t0cTuQCT-2" value="" style="rounded=0;whiteSpace=wrap;html=1;" vertex="1" parent="1">
          <mxGeometry x="270" y="140" width="330" height="30" as="geometry" />
        </mxCell>
        <mxCell id="XBzWgzZ4IYU0t0cTuQCT-3" value="" style="rounded=0;whiteSpace=wrap;html=1;" vertex="1" parent="1">
          <mxGeometry x="480" y="220" width="260" height="90" as="geometry" />
        </mxCell>
        <mxCell id="XBzWgzZ4IYU0t0cTuQCT-14" value="" style="endArrow=classic;html=1;" edge="1" parent="1">
          <mxGeometry width="50" height="50" relative="1" as="geometry">
            <mxPoint x="600" y="360" as="sourcePoint" />
            <mxPoint x="600" y="300" as="targetPoint" />
          </mxGeometry>
        </mxCell>
        <mxCell id="XBzWgzZ4IYU0t0cTuQCT-41" value="" style="rounded=0;whiteSpace=wrap;html=1;" vertex="1" parent="1">
          <mxGeometry x="320" y="50" width="260" height="30" as="geometry" />
        </mxCell>
        <mxCell id="XBzWgzZ4IYU0t0cTuQCT-42" value="" style="ellipse;whiteSpace=wrap;html=1;aspect=fixed;" vertex="1" parent="1">
          <mxGeometry x="340" y="55" width="20" height="20" as="geometry" />
        </mxCell>
        <mxCell id="XBzWgzZ4IYU0t0cTuQCT-43" value="" style="ellipse;whiteSpace=wrap;html=1;aspect=fixed;" vertex="1" parent="1">
          <mxGeometry x="380" y="55" width="20" height="20" as="geometry" />
        </mxCell>
        <mxCell id="XBzWgzZ4IYU0t0cTuQCT-44" value="" style="ellipse;whiteSpace=wrap;html=1;aspect=fixed;" vertex="1" parent="1">
          <mxGeometry x="420" y="55" width="20" height="20" as="geometry" />
        </mxCell>
        <mxCell id="XBzWgzZ4IYU0t0cTuQCT-45" value="" style="ellipse;whiteSpace=wrap;html=1;aspect=fixed;" vertex="1" parent="1">
          <mxGeometry x="460" y="55" width="20" height="20" as="geometry" />
        </mxCell>
        <mxCell id="XBzWgzZ4IYU0t0cTuQCT-46" value="" style="ellipse;whiteSpace=wrap;html=1;aspect=fixed;" vertex="1" parent="1">
          <mxGeometry x="500" y="55" width="20" height="20" as="geometry" />
        </mxCell>
        <mxCell id="XBzWgzZ4IYU0t0cTuQCT-47" value="" style="ellipse;whiteSpace=wrap;html=1;aspect=fixed;" vertex="1" parent="1">
          <mxGeometry x="540" y="55" width="20" height="20" as="geometry" />
        </mxCell>
        <mxCell id="XBzWgzZ4IYU0t0cTuQCT-57" value="" style="rounded=0;whiteSpace=wrap;html=1;" vertex="1" parent="1">
          <mxGeometry x="500" y="360" width="40" height="30" as="geometry" />
        </mxCell>
        <mxCell id="XBzWgzZ4IYU0t0cTuQCT-58" value="" style="rounded=0;whiteSpace=wrap;html=1;" vertex="1" parent="1">
          <mxGeometry x="560" y="360" width="90" height="30" as="geometry" />
        </mxCell>
        <mxCell id="XBzWgzZ4IYU0t0cTuQCT-59" value="" style="rounded=0;whiteSpace=wrap;html=1;" vertex="1" parent="1">
          <mxGeometry x="660" y="360" width="80" height="30" as="geometry" />
        </mxCell>
        <mxCell id="XBzWgzZ4IYU0t0cTuQCT-60" value="" style="endArrow=none;html=1;" edge="1" parent="1">
          <mxGeometry width="50" height="50" relative="1" as="geometry">
            <mxPoint x="520" y="330" as="sourcePoint" />
            <mxPoint x="700" y="330" as="targetPoint" />
          </mxGeometry>
        </mxCell>
        <mxCell id="XBzWgzZ4IYU0t0cTuQCT-61" value="" style="endArrow=none;html=1;" edge="1" parent="1">
          <mxGeometry width="50" height="50" relative="1" as="geometry">
            <mxPoint x="700" y="360" as="sourcePoint" />
            <mxPoint x="699.5" y="330" as="targetPoint" />
          </mxGeometry>
        </mxCell>
        <mxCell id="XBzWgzZ4IYU0t0cTuQCT-62" value="" style="endArrow=none;html=1;" edge="1" parent="1">
          <mxGeometry width="50" height="50" relative="1" as="geometry">
            <mxPoint x="519.5" y="360" as="sourcePoint" />
            <mxPoint x="519.5" y="330" as="targetPoint" />
          </mxGeometry>
        </mxCell>
        <mxCell id="XBzWgzZ4IYU0t0cTuQCT-63" value="" style="ellipse;whiteSpace=wrap;html=1;aspect=fixed;" vertex="1" parent="1">
          <mxGeometry x="510" y="365" width="20" height="20" as="geometry" />
        </mxCell>
        <mxCell id="XBzWgzZ4IYU0t0cTuQCT-64" value="" style="ellipse;whiteSpace=wrap;html=1;aspect=fixed;" vertex="1" parent="1">
          <mxGeometry x="575" y="365" width="20" height="20" as="geometry" />
        </mxCell>
        <mxCell id="XBzWgzZ4IYU0t0cTuQCT-65" value="" style="ellipse;whiteSpace=wrap;html=1;aspect=fixed;" vertex="1" parent="1">
          <mxGeometry x="610" y="365" width="20" height="20" as="geometry" />
        </mxCell>
        <mxCell id="XBzWgzZ4IYU0t0cTuQCT-66" value="" style="ellipse;whiteSpace=wrap;html=1;aspect=fixed;" vertex="1" parent="1">
          <mxGeometry x="670" y="365" width="20" height="20" as="geometry" />
        </mxCell>
        <mxCell id="XBzWgzZ4IYU0t0cTuQCT-67" value="" style="ellipse;whiteSpace=wrap;html=1;aspect=fixed;" vertex="1" parent="1">
          <mxGeometry x="700" y="365" width="20" height="20" as="geometry" />
        </mxCell>
        <mxCell id="XBzWgzZ4IYU0t0cTuQCT-78" value="" style="rounded=0;whiteSpace=wrap;html=1;" vertex="1" parent="1">
          <mxGeometry x="490" y="270" width="240" height="30" as="geometry" />
        </mxCell>
        <mxCell id="XBzWgzZ4IYU0t0cTuQCT-79" value="" style="ellipse;whiteSpace=wrap;html=1;aspect=fixed;" vertex="1" parent="1">
          <mxGeometry x="500" y="275" width="20" height="20" as="geometry" />
        </mxCell>
        <mxCell id="XBzWgzZ4IYU0t0cTuQCT-80" value="" style="ellipse;whiteSpace=wrap;html=1;aspect=fixed;" vertex="1" parent="1">
          <mxGeometry x="530" y="275" width="20" height="20" as="geometry" />
        </mxCell>
        <mxCell id="XBzWgzZ4IYU0t0cTuQCT-81" value="" style="ellipse;whiteSpace=wrap;html=1;aspect=fixed;" vertex="1" parent="1">
          <mxGeometry x="570" y="275" width="20" height="20" as="geometry" />
        </mxCell>
        <mxCell id="XBzWgzZ4IYU0t0cTuQCT-82" value="" style="ellipse;whiteSpace=wrap;html=1;aspect=fixed;" vertex="1" parent="1">
          <mxGeometry x="610" y="275" width="20" height="20" as="geometry" />
        </mxCell>
        <mxCell id="XBzWgzZ4IYU0t0cTuQCT-83" value="" style="ellipse;whiteSpace=wrap;html=1;aspect=fixed;" vertex="1" parent="1">
          <mxGeometry x="650" y="275" width="20" height="20" as="geometry" />
        </mxCell>
        <mxCell id="XBzWgzZ4IYU0t0cTuQCT-84" value="" style="ellipse;whiteSpace=wrap;html=1;aspect=fixed;" vertex="1" parent="1">
          <mxGeometry x="690" y="275" width="20" height="20" as="geometry" />
        </mxCell>
        <mxCell id="XBzWgzZ4IYU0t0cTuQCT-93" value="" style="rounded=0;whiteSpace=wrap;html=1;" vertex="1" parent="1">
          <mxGeometry x="490" y="230" width="240" height="30" as="geometry" />
        </mxCell>
        <mxCell id="XBzWgzZ4IYU0t0cTuQCT-94" value="" style="ellipse;whiteSpace=wrap;html=1;aspect=fixed;" vertex="1" parent="1">
          <mxGeometry x="500" y="235" width="20" height="20" as="geometry" />
        </mxCell>
        <mxCell id="XBzWgzZ4IYU0t0cTuQCT-95" value="" style="ellipse;whiteSpace=wrap;html=1;aspect=fixed;" vertex="1" parent="1">
          <mxGeometry x="530" y="235" width="20" height="20" as="geometry" />
        </mxCell>
        <mxCell id="XBzWgzZ4IYU0t0cTuQCT-96" value="" style="ellipse;whiteSpace=wrap;html=1;aspect=fixed;" vertex="1" parent="1">
          <mxGeometry x="570" y="235" width="20" height="20" as="geometry" />
        </mxCell>
        <mxCell id="XBzWgzZ4IYU0t0cTuQCT-97" value="" style="ellipse;whiteSpace=wrap;html=1;aspect=fixed;" vertex="1" parent="1">
          <mxGeometry x="610" y="235" width="20" height="20" as="geometry" />
        </mxCell>
        <mxCell id="XBzWgzZ4IYU0t0cTuQCT-98" value="" style="ellipse;whiteSpace=wrap;html=1;aspect=fixed;" vertex="1" parent="1">
          <mxGeometry x="650" y="235" width="20" height="20" as="geometry" />
        </mxCell>
        <mxCell id="XBzWgzZ4IYU0t0cTuQCT-99" value="" style="ellipse;whiteSpace=wrap;html=1;aspect=fixed;" vertex="1" parent="1">
          <mxGeometry x="690" y="235" width="20" height="20" as="geometry" />
        </mxCell>
        <mxCell id="XBzWgzZ4IYU0t0cTuQCT-113" value="" style="ellipse;whiteSpace=wrap;html=1;aspect=fixed;" vertex="1" parent="1">
          <mxGeometry x="560" y="145" width="20" height="20" as="geometry" />
        </mxCell>
        <mxCell id="XBzWgzZ4IYU0t0cTuQCT-114" value="" style="ellipse;whiteSpace=wrap;html=1;aspect=fixed;" vertex="1" parent="1">
          <mxGeometry x="530" y="145" width="20" height="20" as="geometry" />
        </mxCell>
        <mxCell id="XBzWgzZ4IYU0t0cTuQCT-115" value="" style="ellipse;whiteSpace=wrap;html=1;aspect=fixed;" vertex="1" parent="1">
          <mxGeometry x="500" y="145" width="20" height="20" as="geometry" />
        </mxCell>
        <mxCell id="XBzWgzZ4IYU0t0cTuQCT-116" value="" style="ellipse;whiteSpace=wrap;html=1;aspect=fixed;" vertex="1" parent="1">
          <mxGeometry x="470" y="145" width="20" height="20" as="geometry" />
        </mxCell>
        <mxCell id="XBzWgzZ4IYU0t0cTuQCT-117" value="" style="ellipse;whiteSpace=wrap;html=1;aspect=fixed;" vertex="1" parent="1">
          <mxGeometry x="440" y="145" width="20" height="20" as="geometry" />
        </mxCell>
        <mxCell id="XBzWgzZ4IYU0t0cTuQCT-118" value="" style="ellipse;whiteSpace=wrap;html=1;aspect=fixed;" vertex="1" parent="1">
          <mxGeometry x="405" y="145" width="20" height="20" as="geometry" />
        </mxCell>
        <mxCell id="XBzWgzZ4IYU0t0cTuQCT-119" value="" style="ellipse;whiteSpace=wrap;html=1;aspect=fixed;" vertex="1" parent="1">
          <mxGeometry x="370" y="145" width="20" height="20" as="geometry" />
        </mxCell>
        <mxCell id="XBzWgzZ4IYU0t0cTuQCT-120" value="" style="ellipse;whiteSpace=wrap;html=1;aspect=fixed;" vertex="1" parent="1">
          <mxGeometry x="340" y="145" width="20" height="20" as="geometry" />
        </mxCell>
        <mxCell id="XBzWgzZ4IYU0t0cTuQCT-121" value="" style="ellipse;whiteSpace=wrap;html=1;aspect=fixed;" vertex="1" parent="1">
          <mxGeometry x="310" y="145" width="20" height="20" as="geometry" />
        </mxCell>
        <mxCell id="XBzWgzZ4IYU0t0cTuQCT-122" value="" style="ellipse;whiteSpace=wrap;html=1;aspect=fixed;" vertex="1" parent="1">
          <mxGeometry x="280" y="145" width="20" height="20" as="geometry" />
        </mxCell>
        <mxCell id="XBzWgzZ4IYU0t0cTuQCT-127" value="" style="endArrow=classic;html=1;entryX=0.639;entryY=1.1;entryDx=0;entryDy=0;entryPerimeter=0;" edge="1" parent="1" target="XBzWgzZ4IYU0t0cTuQCT-2">
          <mxGeometry width="50" height="50" relative="1" as="geometry">
            <mxPoint x="600" y="220" as="sourcePoint" />
            <mxPoint x="500" y="130" as="targetPoint" />
          </mxGeometry>
        </mxCell>
        <mxCell id="XBzWgzZ4IYU0t0cTuQCT-128" value="" style="rounded=0;whiteSpace=wrap;html=1;" vertex="1" parent="1">
          <mxGeometry x="230" y="220" width="130" height="30" as="geometry" />
        </mxCell>
        <mxCell id="XBzWgzZ4IYU0t0cTuQCT-129" value="" style="ellipse;whiteSpace=wrap;html=1;aspect=fixed;" vertex="1" parent="1">
          <mxGeometry x="330" y="225" width="20" height="20" as="geometry" />
        </mxCell>
        <mxCell id="XBzWgzZ4IYU0t0cTuQCT-130" value="" style="ellipse;whiteSpace=wrap;html=1;aspect=fixed;" vertex="1" parent="1">
          <mxGeometry x="300" y="225" width="20" height="20" as="geometry" />
        </mxCell>
        <mxCell id="XBzWgzZ4IYU0t0cTuQCT-131" value="" style="ellipse;whiteSpace=wrap;html=1;aspect=fixed;" vertex="1" parent="1">
          <mxGeometry x="270" y="225" width="20" height="20" as="geometry" />
        </mxCell>
        <mxCell id="XBzWgzZ4IYU0t0cTuQCT-132" value="" style="ellipse;whiteSpace=wrap;html=1;aspect=fixed;" vertex="1" parent="1">
          <mxGeometry x="240" y="225" width="20" height="20" as="geometry" />
        </mxCell>
        <mxCell id="XBzWgzZ4IYU0t0cTuQCT-133" value="" style="endArrow=classic;html=1;entryX=0.352;entryY=1.1;entryDx=0;entryDy=0;entryPerimeter=0;" edge="1" parent="1" target="XBzWgzZ4IYU0t0cTuQCT-2">
          <mxGeometry width="50" height="50" relative="1" as="geometry">
            <mxPoint x="290" y="220" as="sourcePoint" />
            <mxPoint x="340" y="170" as="targetPoint" />
          </mxGeometry>
        </mxCell>
        <mxCell id="XBzWgzZ4IYU0t0cTuQCT-134" value="" style="endArrow=classic;html=1;" edge="1" parent="1">
          <mxGeometry width="50" height="50" relative="1" as="geometry">
            <mxPoint x="440" y="140" as="sourcePoint" />
            <mxPoint x="440" y="80" as="targetPoint" />
          </mxGeometry>
        </mxCell>
        <mxCell id="XBzWgzZ4IYU0t0cTuQCT-135" value="Personal&lt;br&gt;data" style="text;html=1;strokeColor=none;fillColor=none;align=center;verticalAlign=middle;whiteSpace=wrap;rounded=0;" vertex="1" parent="1">
          <mxGeometry x="500" y="410" width="40" height="20" as="geometry" />
        </mxCell>
        <mxCell id="XBzWgzZ4IYU0t0cTuQCT-136" value="Preferences" style="text;html=1;strokeColor=none;fillColor=none;align=center;verticalAlign=middle;whiteSpace=wrap;rounded=0;" vertex="1" parent="1">
          <mxGeometry x="580" y="410" width="40" height="20" as="geometry" />
        </mxCell>
        <mxCell id="XBzWgzZ4IYU0t0cTuQCT-137" value="Opinions" style="text;html=1;strokeColor=none;fillColor=none;align=center;verticalAlign=middle;whiteSpace=wrap;rounded=0;" vertex="1" parent="1">
          <mxGeometry x="680" y="410" width="40" height="20" as="geometry" />
        </mxCell>
        <mxCell id="XBzWgzZ4IYU0t0cTuQCT-138" value="Question" style="text;html=1;strokeColor=none;fillColor=none;align=center;verticalAlign=middle;whiteSpace=wrap;rounded=0;" vertex="1" parent="1">
          <mxGeometry x="260" y="260" width="40" height="20" as="geometry" />
        </mxCell>
      </root>
    </mxGraphModel>
  </diagram>
</mxfile>
